<svg xmlns="http://www.w3.org/2000/svg" viewBox="0 0 794.48 122.62"><defs><style>.cls-1{font-size:113.48px;font-family:HurmeGeometricSans1-Bold, "Hurme Geometric Sans 1";font-weight:700;letter-spacing:-0.03em;}.cls-1,.cls-5{fill:#fff;}.cls-2,.cls-3,.cls-4{font-family:HurmeGeometricSans1-Light, "Hurme Geometric Sans 1";font-weight:300;}.cls-3{letter-spacing:-0.04em;}.cls-4{letter-spacing:-0.02em;}</style></defs><title>Ativo 2</title><g id="Camada_2" data-name="Camada 2"><g id="Camada_1-2" data-name="Camada 1"><text class="cls-1" transform="translate(0 96.29)">idp<tspan class="cls-2" x="161.83" y="0" xml:space="preserve">  pportuniti</tspan><tspan class="cls-3" x="693.03" y="0">e</tspan><tspan class="cls-4" x="752.04" y="0">s</tspan></text><path class="cls-5" d="M170,107h0a3,3,0,0,1-.46-4.26l13-16.12a3,3,0,0,1,4.26-.46h0a3,3,0,0,1,.46,4.26l-13,16.12A3,3,0,0,1,170,107Zm11.25-9.13L182.7,96,178,92.24l-1.49,1.85Zm-2.08,2.57,1.49-1.84-4.71-3.8-1.49,1.84Z"/><path class="cls-5" d="M216.29,25s-17.42-3.46-26.49,5.39C189.8,30.43,199.48,24.26,216.29,25Z"/><path class="cls-5" d="M208.25,15.82c11.46,0,21.22,4,29.05,11.8s11.81,17.48,11.81,29.17-4,21.33-11.81,29.16-17.59,11.69-29.05,11.69S187.15,93.78,179.32,86,167.4,68.48,167.4,56.79s4-21.34,11.92-29.17A39.36,39.36,0,0,1,208.25,15.82Zm0,76.26c10.1,0,18.39-3.4,25.08-10.1s10-15.09,10-25.19-3.41-18.5-10.1-25.19a35.47,35.47,0,0,0-49.82,0c-6.69,6.69-10,15.09-10,25.19s3.3,18.49,10,25.19S198.27,92.08,208.25,92.08Z"/></g></g></svg>